<?xml version="1.0" encoding="UTF-8"?><svg id="Capa_2" xmlns="http://www.w3.org/2000/svg" xmlns:xlink="http://www.w3.org/1999/xlink" viewBox="0 0 422 230"><defs><style>.cls-1{fill:url(#linear-gradient-2);}.cls-2{fill:url(#linear-gradient-17);}.cls-3{fill:url(#linear-gradient-15);}.cls-4{fill:url(#linear-gradient-14);}.cls-5{fill:url(#linear-gradient-6);}.cls-6{fill:url(#linear-gradient-11);}.cls-7{filter:url(#drop-shadow-1);}.cls-8{fill:url(#linear-gradient-10);}.cls-9{fill:url(#linear-gradient-16);}.cls-10{fill:#f59f0f;}.cls-11{fill:url(#linear-gradient-5);}.cls-12,.cls-13{fill:none;}.cls-14{fill:url(#linear-gradient-7);}.cls-13{clip-path:url(#clippath);}.cls-15{fill:url(#linear-gradient-9);}.cls-16{fill:url(#linear-gradient-3);}.cls-17{fill:url(#linear-gradient);}.cls-18{fill:url(#linear-gradient-4);}.cls-19{fill:url(#linear-gradient-8);}.cls-20{fill:url(#linear-gradient-12);}.cls-21{fill:url(#linear-gradient-13);}</style><filter id="drop-shadow-1" filterUnits="userSpaceOnUse"><feOffset dx="0" dy="0"/><feGaussianBlur result="blur" stdDeviation="7.14"/><feFlood flood-color="#000" flood-opacity=".3"/><feComposite in2="blur" operator="in"/><feComposite in="SourceGraphic"/></filter><clipPath id="clippath"><rect class="cls-12" x="123.04" y="-68.9" width="176.24" height="367.48" rx="8.55" ry="8.55" transform="translate(326 -96.32) rotate(90)"/></clipPath><linearGradient id="linear-gradient" x1="211.16" y1="10.93" x2="211.16" y2="208.03" gradientUnits="userSpaceOnUse"><stop offset="0" stop-color="#fff"/><stop offset=".3" stop-color="#faf5fc"/><stop offset=".79" stop-color="#efdaf6"/><stop offset="1" stop-color="#eacef4"/></linearGradient><linearGradient id="linear-gradient-2" x1="386.16" y1="-12.56" x2="383.07" y2="71.99" gradientUnits="userSpaceOnUse"><stop offset="0" stop-color="#453b89"/><stop offset="1" stop-color="#121255"/></linearGradient><linearGradient id="linear-gradient-3" x1="38.9" y1="-12.56" x2="35.81" y2="71.99" xlink:href="#linear-gradient-2"/><linearGradient id="linear-gradient-4" x1="386.16" y1="142.31" x2="383.07" y2="226.85" xlink:href="#linear-gradient-2"/><linearGradient id="linear-gradient-5" x1="38.9" y1="142.31" x2="35.81" y2="226.85" xlink:href="#linear-gradient-2"/><linearGradient id="linear-gradient-6" x1="82.24" y1="61.54" x2="83.11" y2="-15.52" gradientUnits="userSpaceOnUse"><stop offset="0" stop-color="#e91f3d"/><stop offset="1" stop-color="#860011"/></linearGradient><linearGradient id="linear-gradient-7" x1="211.27" y1="46.99" x2="209.1" y2="131.23" xlink:href="#linear-gradient-6"/><linearGradient id="linear-gradient-8" x1="211.27" y1="46.99" x2="209.1" y2="131.23" xlink:href="#linear-gradient-6"/><linearGradient id="linear-gradient-9" x1="211.27" y1="46.99" x2="209.1" y2="131.23" xlink:href="#linear-gradient-6"/><linearGradient id="linear-gradient-10" x1="211.27" y1="46.99" x2="209.1" y2="131.23" xlink:href="#linear-gradient-6"/><linearGradient id="linear-gradient-11" x1="211.27" y1="46.99" x2="209.1" y2="131.23" xlink:href="#linear-gradient-6"/><linearGradient id="linear-gradient-12" x1="211.27" y1="46.99" x2="209.1" y2="131.23" xlink:href="#linear-gradient-6"/><linearGradient id="linear-gradient-13" x1="211.27" y1="46.99" x2="209.1" y2="131.23" xlink:href="#linear-gradient-6"/><linearGradient id="linear-gradient-14" x1="211.27" y1="46.99" x2="209.1" y2="131.23" xlink:href="#linear-gradient-6"/><linearGradient id="linear-gradient-15" x1="211.27" y1="46.99" x2="209.1" y2="131.23" xlink:href="#linear-gradient-6"/><linearGradient id="linear-gradient-16" x1="211.27" y1="46.99" x2="209.1" y2="131.23" xlink:href="#linear-gradient-6"/><linearGradient id="linear-gradient-17" x1="80.91" y1="43.23" x2="78.55" y2="101.47" gradientUnits="userSpaceOnUse"><stop offset="0" stop-color="#fff"/><stop offset=".64" stop-color="#efdbf7"/><stop offset="1" stop-color="#eacef4"/></linearGradient></defs><g id="Capa_1-2"><rect class="cls-7" x="22.25" y="21.63" width="377.82" height="186.41" rx="13.68" ry="13.68"/><g class="cls-13"><rect class="cls-17" x="22.25" y="21.63" width="377.82" height="186.41" rx="13.68" ry="13.68"/></g><path class="cls-1" d="m384.3,34.05c-2.42,0-4.39,1.93-4.39,4.32,0,.9.28,1.74.76,2.43l6.1-6c-.7-.47-1.55-.75-2.47-.75Zm3.63,1.89l-6.1,6c.7.47,1.55.75,2.47.75,2.42,0,4.39-1.93,4.39-4.32,0-.9-.28-1.74-.76-2.43Z"/><path class="cls-16" d="m37.04,34.05c-2.42,0-4.39,1.93-4.39,4.32,0,.9.28,1.74.76,2.43l6.1-6c-.7-.47-1.55-.75-2.47-.75Zm3.63,1.89l-6.1,6c.7.47,1.55.75,2.47.75,2.42,0,4.39-1.93,4.39-4.32,0-.9-.28-1.74-.76-2.43Z"/><path class="cls-18" d="m384.3,188.92c-2.42,0-4.39,1.93-4.39,4.32,0,.9.28,1.74.76,2.43l6.1-6c-.7-.47-1.55-.75-2.47-.75Zm3.63,1.89l-6.1,6c.7.47,1.55.75,2.47.75,2.42,0,4.39-1.93,4.39-4.32,0-.9-.28-1.74-.76-2.43Z"/><path class="cls-11" d="m37.04,188.92c-2.42,0-4.39,1.93-4.39,4.32,0,.9.28,1.74.76,2.43l6.1-6c-.7-.47-1.55-.75-2.47-.75Zm3.63,1.89l-6.1,6c.7.47,1.55.75,2.47.75,2.42,0,4.39-1.93,4.39-4.32,0-.9-.28-1.74-.76-2.43Z"/><rect class="cls-5" x="51.25" y="40.79" width="62.16" height="25.71"/><rect class="cls-10" x="308.92" y="40.79" width="62.16" height="25.71"/><path class="cls-14" d="m163.72,36.72c1.24.43,2.12.91,2.64,1.45.52.54.8,1.11.82,1.72.02.61-.16,1.24-.54,1.9-.39.66-.86,1.32-1.42,1.98-.56.67-1.17,1.33-1.81,1.98-.64.66-1.22,1.28-1.73,1.88-.51.59-.9,1.15-1.17,1.67-.27.52-.31.98-.12,1.38-.8-.38-1.39-.8-1.76-1.26s-.57-.94-.6-1.45c-.03-.51.07-1.03.3-1.58s.54-1.1.93-1.66c.39-.56.81-1.12,1.28-1.69.47-.56.92-1.12,1.35-1.67.06-.4.07-.76.01-1.08-.06-.32-.23-.59-.52-.81-.29-.21-.71-.36-1.27-.44-.55-.08-1.3-.07-2.23.02-.93.09-1.93.36-2.98.8-1.05.43-2.13,1-3.22,1.69-1.09.69-2.18,1.48-3.25,2.39-1.07.9-2.08,1.87-3.04,2.9-.96,1.03-1.84,2.11-2.64,3.23-.8,1.12-1.48,2.26-2.03,3.4s-.95,2.26-1.19,3.36c-.25,1.1-.3,2.15-.16,3.15.31,2.04,1.09,3.55,2.35,4.52,1.26.97,3.07,1.49,5.42,1.56,1.13.03,2.24-.08,3.34-.32,1.1-.25,2.16-.58,3.19-1.02s2-.93,2.93-1.5,1.79-1.14,2.58-1.73c.79-.59,1.49-1.17,2.11-1.73.62-.56,1.13-1.06,1.53-1.51.18-.17.33-.35.47-.53s.27-.34.4-.49c.42-.46.82-.93,1.2-1.4.38-.47.76-.94,1.15-1.4-.02.09-.02.23-.02.42s-.03.41-.08.68c-.06.27-.17.59-.35.95-.18.36-.44.77-.8,1.21-.58.71-1.24,1.45-1.98,2.21-.74.76-1.55,1.5-2.43,2.22-.88.72-1.82,1.4-2.82,2.04-1.01.64-2.06,1.2-3.15,1.69-1.09.48-2.24.87-3.43,1.15-1.19.28-2.41.43-3.64.43-2.04,0-3.77-.21-5.18-.62-1.41-.41-2.58-.97-3.52-1.67-.94-.7-1.69-1.53-2.23-2.47s-.97-1.93-1.28-2.98c-.37-1.25-.49-2.54-.36-3.87s.46-2.65.99-3.98c.53-1.32,1.23-2.62,2.11-3.88.88-1.27,1.88-2.47,3-3.61,1.13-1.14,2.35-2.19,3.67-3.15,1.32-.96,2.68-1.78,4.09-2.48,1.41-.7,2.84-1.24,4.3-1.64s2.88-.6,4.26-.62c1.5-.06,2.79.13,3.87.59s1.93,1.06,2.55,1.8c.18-.4.29-.77.33-1.12.04-.35-.03-.68-.21-1Z"/><path class="cls-19" d="m173.4,58.25c-.06.16-.21.4-.45.74-.23.33-.52.69-.86,1.07s-.71.77-1.12,1.16-.81.74-1.21,1.04c-.39.3-.77.53-1.12.7-.35.17-.65.21-.89.13-.32-.09-.62-.2-.9-.32-.28-.12-.54-.25-.76-.39-.22-.14-.41-.3-.54-.46s-.21-.36-.23-.58c-.03-.71.14-1.58.52-2.61.38-1.03.95-2.11,1.73-3.25.26-.38.58-.82.96-1.31.39-.49.84-.96,1.36-1.4.52-.44,1.12-.82,1.79-1.12.67-.3,1.41-.45,2.23-.45.5,0,.96.06,1.4.17.43.11.81.26,1.13.44.32.18.59.39.8.62s.35.46.41.68c.06.21.06.4,0,.57-.06.17-.23.26-.48.26-.29,0-.48-.06-.57-.19-.09-.13-.17-.27-.25-.43-.08-.16-.2-.3-.35-.44-.15-.13-.43-.2-.83-.2s-.78.14-1.2.43c-.41.29-.8.63-1.18,1.03-.38.4-.72.82-1.03,1.25-.31.43-.55.78-.72,1.04,0,.02-.1.17-.29.48s-.41.66-.65,1.07c-.24.41-.48.83-.72,1.25-.24.42-.42.76-.53,1.01-.1.19-.08.31.05.37s.32.02.58-.11c.21-.11.47-.29.77-.55.31-.25.63-.55.97-.89.34-.34.68-.7,1.03-1.08.35-.38.67-.75.98-1.1s.58-.69.82-1.01.43-.57.56-.76l.68-1.5s.16.04.45.18c.28.13.6.32.95.55.35.23.69.48,1.01.75.32.27.53.52.63.76.08.22.03.46-.15.71s-.39.61-.63,1.07-.44.85-.6,1.17c-.16.32-.32.67-.47,1.02-.15.36-.25.65-.3.89-.05.29-.02.45.07.5.1.05.22.04.36-.04s.29-.17.43-.3c.14-.13.25-.22.31-.29.45-.41.94-.93,1.46-1.54s1.04-1.23,1.56-1.83l2.34-2.8c-.03.09-.05.23-.05.42s-.03.41-.1.68c-.06.27-.18.58-.35.94-.17.36-.42.76-.76,1.22l-.19.17-.63.85c-.37.46-.74.93-1.11,1.41-.37.48-.76.93-1.18,1.34-.42.44-.86.81-1.32,1.1-.46.29-.9.45-1.34.46-.31,0-.61-.06-.91-.18-.3-.12-.56-.29-.8-.51s-.42-.48-.55-.78-.21-.62-.21-.97c0-.19,0-.4.02-.64.02-.24.04-.47.06-.69.02-.22.05-.42.07-.59.02-.17.04-.3.04-.38Z"/><path class="cls-15" d="m182.84,60.65c.1-.32.26-.82.5-1.51s.51-1.48.82-2.39c.31-.9.66-1.88,1.05-2.92.39-1.04.77-2.09,1.15-3.15s.75-2.07,1.11-3.06.69-1.88.98-2.66c.29-.78.52-1.42.7-1.92.18-.5.27-.79.29-.87.1-.3.17-.54.22-.71.05-.17.03-.36-.05-.55,0-.02.17.08.52.27.35.2.74.45,1.18.76.44.31.86.63,1.25.96.39.33.64.62.74.85.08.22.1.48.07.78-.03.3-.16.67-.39,1.12-1.25,2.64-2.38,5.03-3.38,7.17-.43.9-.86,1.8-1.28,2.69-.42.89-.8,1.71-1.13,2.43-.34.73-.62,1.34-.84,1.83-.23.49-.36.79-.41.9-.1.27-.09.45.02.53s.28.12.51.09c.23-.02.48-.09.76-.21.28-.12.53-.26.76-.42.27-.17.57-.4.88-.67.31-.27.63-.57.94-.89.31-.32.62-.65.92-.99s.58-.65.86-.95l2.34-2.8c-.03.09-.05.23-.05.42s-.03.41-.1.68c-.06.27-.18.58-.35.94-.17.36-.43.76-.78,1.22l-.17.17-.65.85c-.24.3-.58.69-1.03,1.17-.44.48-.95.96-1.51,1.42-.56.47-1.18.87-1.85,1.21-.67.34-1.35.51-2.04.51-1.11,0-1.85-.21-2.22-.63s-.48-.99-.34-1.72Z"/><path class="cls-8" d="m194.11,60.65c.11-.43.25-.92.41-1.47.16-.55.32-1.12.48-1.7.16-.58.33-1.15.49-1.71s.32-1.08.45-1.55c.13-.48.24-.88.33-1.2s.15-.54.18-.65c.1-.32.16-.56.19-.72s.02-.34-.02-.53c0-.02.07.02.22.09.14.08.33.19.57.32.23.13.49.29.77.48.28.18.55.37.81.56.26.19.48.38.66.57.18.19.31.36.37.52.08.22.1.49.07.79-.03.31-.17.69-.41,1.13-.21.41-.39.78-.55,1.12-.16.33-.34.7-.54,1.09s-.39.79-.58,1.17c-.19.39-.35.74-.51,1.04-.15.31-.26.54-.33.7-.1.27-.1.42-.01.46.09.04.21.03.36-.04.15-.06.31-.15.48-.27s.29-.21.35-.27c.45-.41.94-.93,1.46-1.54s1.04-1.23,1.56-1.83l2.34-2.8c-.03.09-.05.23-.05.42s-.03.41-.1.68c-.06.27-.18.58-.35.94-.17.36-.42.76-.76,1.22l-.19.17-.63.85c-.37.46-.74.93-1.11,1.41-.37.48-.76.93-1.18,1.34-.42.44-.86.8-1.33,1.08-.47.28-.91.44-1.33.49-.27.03-.58,0-.91-.11-.33-.1-.63-.26-.91-.48-.27-.21-.49-.47-.65-.77-.16-.3-.2-.63-.12-1Zm4.54-14.22c1.01.33,1.76.67,2.24,1.01.48.34.79.68.92,1.01.13.33.12.67-.01,1-.14.33-.31.66-.51.97s-.39.62-.58.93c-.19.3-.27.59-.25.85-.87-.3-1.5-.61-1.89-.91s-.64-.62-.75-.94c-.1-.32-.1-.64.01-.96s.25-.65.4-.97c.15-.32.29-.65.4-.99.11-.33.12-.67.02-1Z"/><path class="cls-6" d="m209.02,60.1c.39-.41.79-.87,1.22-1.39.43-.51.85-1.02,1.27-1.51l2.37-2.8c-.03.09-.05.23-.05.42s-.03.41-.1.68c-.06.27-.18.58-.35.94-.17.36-.43.76-.78,1.22l-.17.17c-.64.89-1.28,1.73-1.91,2.54-.63.81-1.27,1.55-1.92,2.24-.65.69-1.32,1.31-2.02,1.85-.69.55-1.42.99-2.2,1.34-.63,1.63-1.17,3.11-1.63,4.45-.46,1.34-.79,2.46-.98,3.36-.15-.09-.37-.23-.66-.4-.3-.17-.58-.39-.86-.65-.27-.26-.49-.57-.65-.94-.16-.36-.19-.78-.1-1.26.13-.47.28-1.01.45-1.61s.37-1.27.59-1.99c-.06.02-.14.02-.22.02h-.24c-.35,0-.7-.04-1.04-.13s-.62-.21-.84-.36-.37-.34-.45-.57-.01-.49.18-.77c1.03.44,2.05.6,3.07.48.45-1.2.94-2.54,1.47-4.01.53-1.47,1.09-2.99,1.69-4.55.6-1.56,1.21-3.12,1.85-4.69s1.28-3.06,1.94-4.49c.66-1.42,1.32-2.73,1.99-3.92.67-1.19,1.32-2.18,1.97-2.97.13-.17.35-.3.68-.39.32-.09.68-.14,1.07-.15.39-.02.8,0,1.22.02.42.03.79.08,1.12.15.33.07.59.15.78.25s.27.19.22.29c-.27.08-.66.47-1.16,1.17-.5.71-1.07,1.63-1.7,2.78-.64,1.15-1.33,2.47-2.08,3.95-.75,1.49-1.51,3.05-2.28,4.7-.77,1.65-1.54,3.32-2.29,5.01-.76,1.69-1.46,3.32-2.12,4.89.6-.46,1.2-.97,1.8-1.53.6-.56,1.22-1.17,1.85-1.84Z"/><path class="cls-20" d="m214.12,61.19c-.24-.54-.35-1.1-.31-1.7.03-.59.17-1.18.4-1.76.23-.58.54-1.13.92-1.66s.8-1.01,1.27-1.44c.14-.47.37-.93.68-1.37.31-.43.68-.81,1.11-1.14.43-.32.93-.58,1.48-.77.55-.19,1.15-.28,1.77-.26,1.24.03,2.18.32,2.82.85s1.02,1.2,1.13,1.99c.14,1.09.04,2.16-.3,3.19-.35,1.04-.86,1.97-1.53,2.81.51-.11,1.1-.34,1.75-.69.65-.35,1.36-.91,2.11-1.69l2.75-3.18c-.03.09-.05.23-.05.42s-.04.41-.11.68c-.07.27-.19.58-.36.94-.17.36-.43.76-.79,1.22l-.14.17c-.34.4-.73.81-1.17,1.23-.44.43-.92.82-1.44,1.16s-1.07.64-1.65.87c-.59.23-1.19.34-1.82.34h-.28c-.09,0-.19,0-.3-.02-.68.55-1.4.97-2.18,1.26-.78.28-1.55.41-2.3.38-.74-.03-1.42-.18-2.05-.44-.63-.26-1.09-.73-1.4-1.41Zm5.24-.5c-.58-.32-1.12-.7-1.62-1.16l-.07.38c-.05.19-.08.38-.11.58-.02.2-.02.38.01.53.03.16.09.29.18.38.09.1.21.13.37.12.39-.03.8-.31,1.23-.83Zm-.41-3.77c.16.44.36.87.6,1.27.24.4.53.75.87,1.03.29-.49.57-1.01.83-1.57.27-.55.5-1.1.69-1.63.19-.53.34-1.02.45-1.48.1-.46.16-.84.16-1.14.02-.46-.07-.81-.27-1.06-.19-.25-.41-.37-.65-.37-.69,0-1.25.16-1.68.48-.43.32-.75.73-.98,1.23.37-.03.72,0,1.05.07.33.08.6.22.81.43.06.06.12.12.17.18.05.06.09.12.12.2-.08.05-.16.09-.24.14-.08.05-.16.1-.24.17-.32.24-.62.53-.91.89-.28.36-.54.74-.78,1.15Z"/><path class="cls-21" d="m233.54,47.57c.82.27,1.45.55,1.88.85.43.3.73.61.88.91.15.31.2.62.13.94-.06.32-.18.63-.36.94-.18.31-.38.61-.62.9-.23.29-.44.57-.62.84.24.09.47.15.69.18.22.02.41.04.59.04.21,0,.43-.02.65-.07.23-.05.45-.13.68-.26.23-.13.44-.31.65-.55.21-.24.41-.54.6-.9.37.03.76.13,1.16.31s.75.38,1.05.62.5.48.62.74c.11.25.07.48-.12.67-.5.47-1.03,1.03-1.59,1.66-.56.63-1.09,1.27-1.58,1.92-.49.65-.91,1.27-1.25,1.86-.35.59-.55,1.09-.62,1.48-.02.11-.03.23-.04.37,0,.13.02.24.1.31s.22.08.43.01c.22-.06.55-.25,1-.55.29-.21.75-.63,1.39-1.27.63-.64,1.36-1.41,2.16-2.31l2.37-2.8c-.03.09-.05.23-.05.42s-.03.41-.1.68c-.06.27-.18.58-.35.94-.17.36-.43.76-.78,1.22-.5.54-1.02,1.12-1.57,1.75-.55.63-1.11,1.2-1.68,1.73-.57.53-1.16.97-1.75,1.33-.6.36-1.18.53-1.76.53-.97-.02-1.67-.3-2.12-.84-.45-.55-.64-1.24-.56-2.08.08-.84.43-1.78,1.06-2.81.63-1.04,1.54-2.04,2.73-3.03-.37-.02-.77-.02-1.2-.02s-.94-.11-1.53-.33l-2.85,3.66-1.16,1.31c-.08-.22-.17-.44-.27-.67-.1-.22-.06-.49.1-.81l.36-.4c.72-.87,1.31-1.62,1.76-2.24.45-.62.76-1.1.92-1.41-.43-.29-.71-.59-.83-.9-.12-.32-.15-.64-.07-.96.07-.32.2-.65.39-.99.18-.33.37-.67.55-1,.19-.33.34-.66.46-.97s.14-.62.06-.93Z"/><path class="cls-4" d="m251.21,60.72c.05-.32.14-.71.27-1.17.13-.47.28-.95.45-1.46s.34-1.01.52-1.52c.18-.51.35-.96.51-1.35.11-.3.22-.57.33-.82s.21-.48.3-.7c.13-.32.18-.53.14-.63-.03-.1-.11-.14-.23-.11-.12.03-.26.11-.43.23-.17.12-.33.24-.47.37-.16.14-.41.36-.74.65-.33.29-.7.65-1.1,1.07-.4.42-.82.89-1.25,1.41s-.83,1.07-1.19,1.65c-.36.58-.68,1.18-.94,1.79s-.43,1.23-.5,1.85c.05.44.2.79.46,1.04-.39,0-.8-.04-1.23-.11-.43-.07-.83-.2-1.19-.38s-.65-.42-.87-.71c-.22-.29-.3-.66-.25-1.1.02-.32.09-.71.22-1.17.13-.47.27-.96.43-1.47.16-.51.33-1.02.52-1.52.19-.5.35-.95.5-1.34l1.13-2.8c.1-.32.12-.57.07-.75-.05-.18-.1-.37-.14-.56,0-.02.15.06.46.24.31.17.66.39,1.05.65.39.26.77.54,1.13.84s.58.57.66.81c.08.17.13.37.16.58.02.21-.02.46-.13.72.4-.49.73-.91.99-1.25.26-.34.52-.66.8-.96.45-.46.89-.83,1.32-1.12.43-.29.86-.45,1.32-.5.26-.03.6.03,1.03.18s.83.36,1.21.62c.38.26.69.56.94.9.25.34.33.69.25,1.06-.06.44-.24.94-.52,1.48-.28.55-.59,1.12-.93,1.71s-.68,1.2-1.01,1.82c-.34.62-.59,1.22-.77,1.8-.08.27-.08.43,0,.47.08.05.2.04.35-.04.15-.07.31-.17.47-.29.16-.12.27-.21.34-.27.45-.41.93-.93,1.45-1.54.51-.62,1.03-1.23,1.54-1.83l2.37-2.8c-.02.09-.02.23-.02.42s-.04.41-.11.68c-.07.27-.19.58-.36.94-.17.36-.43.76-.78,1.22l-.17.17-.65.85c-.37.46-.74.93-1.11,1.41-.37.48-.76.93-1.16,1.34-.43.44-.88.8-1.33,1.08-.45.28-.88.44-1.3.49-.27.03-.58,0-.93-.09-.35-.09-.66-.25-.95-.45-.29-.21-.52-.46-.69-.75s-.23-.62-.18-.99Z"/><path class="cls-3" d="m261.2,60.65c.11-.43.25-.92.41-1.47.16-.55.32-1.12.48-1.7.16-.58.33-1.15.49-1.71s.32-1.08.45-1.55c.13-.48.24-.88.33-1.2s.15-.54.18-.65c.1-.32.16-.56.19-.72s.02-.34-.02-.53c0-.02.07.02.22.09.14.08.33.19.57.32.23.13.49.29.77.48.28.18.55.37.81.56.26.19.48.38.66.57.18.19.31.36.37.52.08.22.1.49.07.79-.03.31-.17.69-.41,1.13-.21.41-.39.78-.55,1.12-.16.33-.34.7-.54,1.09s-.39.79-.58,1.17c-.19.39-.35.74-.51,1.04-.15.31-.26.54-.33.7-.1.27-.1.42-.01.46.09.04.21.03.36-.04.15-.06.31-.15.48-.27s.29-.21.35-.27c.45-.41.94-.93,1.46-1.54s1.04-1.23,1.56-1.83l2.34-2.8c-.03.09-.05.23-.05.42s-.03.41-.1.68c-.06.27-.18.58-.35.94-.17.36-.42.76-.76,1.22l-.19.17-.63.85c-.37.46-.74.93-1.11,1.41-.37.48-.76.93-1.18,1.34-.42.44-.86.8-1.33,1.08-.47.28-.91.44-1.33.49-.27.03-.58,0-.91-.11-.33-.1-.63-.26-.91-.48-.27-.21-.49-.47-.65-.77-.16-.3-.2-.63-.12-1Zm4.54-14.22c1.01.33,1.76.67,2.24,1.01.48.34.79.68.92,1.01.13.33.12.67-.01,1-.14.33-.31.66-.51.97s-.39.62-.58.93c-.19.3-.27.59-.25.85-.87-.3-1.5-.61-1.89-.91s-.64-.62-.75-.94c-.1-.32-.1-.64.01-.96s.25-.65.4-.97c.15-.32.29-.65.4-.99.11-.33.12-.67.02-1Z"/><path class="cls-9" d="m278.1,58.25c-.06.16-.21.4-.45.74-.23.33-.52.69-.86,1.07s-.71.77-1.12,1.16-.81.74-1.21,1.04c-.39.3-.77.53-1.12.7-.35.17-.65.21-.89.13-.32-.09-.62-.2-.9-.32-.28-.12-.54-.25-.76-.39-.22-.14-.41-.3-.54-.46s-.21-.36-.23-.58c-.03-.71.14-1.58.52-2.61.38-1.03.95-2.11,1.73-3.25.26-.38.58-.82.96-1.31.39-.49.84-.96,1.36-1.4.52-.44,1.12-.82,1.79-1.12.67-.3,1.41-.45,2.23-.45.5,0,.96.06,1.4.17.43.11.81.26,1.13.44.32.18.59.39.8.62s.35.46.41.68c.06.21.06.4,0,.57-.06.17-.23.26-.48.26-.29,0-.48-.06-.57-.19-.09-.13-.17-.27-.25-.43-.08-.16-.2-.3-.35-.44-.15-.13-.43-.2-.83-.2s-.78.14-1.2.43c-.41.29-.8.63-1.18,1.03-.38.4-.72.82-1.03,1.25-.31.43-.55.78-.72,1.04,0,.02-.1.17-.29.48s-.41.66-.65,1.07c-.24.41-.48.83-.72,1.25-.24.42-.42.76-.53,1.01-.1.19-.08.31.05.37s.32.02.58-.11c.21-.11.47-.29.77-.55.31-.25.63-.55.97-.89.34-.34.68-.7,1.03-1.08.35-.38.67-.75.98-1.1s.58-.69.82-1.01.43-.57.56-.76l.68-1.5s.16.04.45.18c.28.13.6.32.95.55.35.23.69.48,1.01.75.32.27.53.52.63.76.08.22.03.46-.15.71s-.39.61-.63,1.07-.44.85-.6,1.17c-.16.32-.32.67-.47,1.02-.15.36-.25.65-.3.89-.05.29-.02.45.07.5.1.05.22.04.36-.04s.29-.17.43-.3c.14-.13.25-.22.31-.29.45-.41.94-.93,1.46-1.54s1.04-1.23,1.56-1.83l2.34-2.8c-.03.09-.05.23-.05.42s-.03.41-.1.68c-.06.27-.18.58-.35.94-.17.36-.42.76-.76,1.22l-.19.17-.63.85c-.37.46-.74.93-1.11,1.41-.37.48-.76.93-1.18,1.34-.42.44-.86.81-1.32,1.1-.46.29-.9.45-1.34.46-.31,0-.61-.06-.91-.18-.3-.12-.56-.29-.8-.51s-.42-.48-.55-.78-.21-.62-.21-.97c0-.19,0-.4.02-.64.02-.24.04-.47.06-.69.02-.22.05-.42.07-.59.02-.17.04-.3.04-.38Z"/><path class="cls-2" d="m61.42,45.82c1.17-.17,2.56-.3,4.09-.3,2.76,0,4.73.63,6.03,1.83,1.33,1.2,2.1,2.89,2.1,5.26s-.75,4.35-2.14,5.7c-1.39,1.37-3.69,2.11-6.58,2.11-1.37,0-2.52-.07-3.49-.17v-14.42Zm1.92,12.96c.49.09,1.19.11,1.94.11,4.11,0,6.34-2.26,6.34-6.22.02-3.46-1.97-5.65-6.03-5.65-.99,0-1.75.09-2.25.2v11.57Z"/><path class="cls-2" d="m84.95,53.41h-5.79v5.28h6.45v1.59h-8.37v-14.66h8.04v1.59h-6.12v4.63h5.79v1.57Z"/><path class="cls-2" d="m99.63,59.8c-.71.35-2.12.7-3.93.7-4.2,0-7.36-2.61-7.36-7.42s3.16-7.7,7.78-7.7c1.86,0,3.03.39,3.54.65l-.46,1.54c-.73-.35-1.77-.61-3-.61-3.49,0-5.81,2.2-5.81,6.04,0,3.59,2.1,5.89,5.72,5.89,1.17,0,2.36-.24,3.14-.61l.4,1.5Z"/></g></svg>